External Loads File
version=1
nRows=93
nColumns=13
Range=5.000000e-03-10 seconds
endheader
time 	forceRightX 	forceRightY 	forceRightZ 	pointRightX 	pointRightY 	pointRightZ 	forceLeftX 	forceLeftY 	forceLeftZ 	pointLeftX 	pointLeftY 	pointLeftZ 		
5.005000 58.552882 -24.087507 -0.000000 0.119301 0.351035 -0.163112 -252.527265 775.437188 -0.000000 0.391020 0.272092 -0.417054
5.010000 57.127651 -19.364952 -0.000000 0.122385 0.361936 -0.163735 -238.911886 780.790062 -0.000000 0.388536 0.261277 -0.417015
5.015000 55.237671 -15.508518 -0.000000 0.126125 0.373217 -0.164336 -220.313828 787.203168 -0.000000 0.385429 0.250591 -0.416949
5.020000 52.937585 -12.463810 -0.000000 0.130442 0.383586 -0.164978 -200.503743 793.212221 -0.000000 0.381701 0.240253 -0.416879
5.025000 50.180208 -10.554415 -0.000000 0.135324 0.393910 -0.165583 -177.322545 798.908366 -0.000000 0.377303 0.230265 -0.416747
5.030000 46.962522 -9.818481 -0.000000 0.140725 0.403903 -0.166187 -151.719646 803.349611 -0.000000 0.372346 0.220601 -0.416640
5.035000 43.232521 -10.311269 -0.000000 0.146787 0.413706 -0.166840 -123.350979 805.765089 -0.000000 0.366849 0.211246 -0.416481
5.040000 38.936872 -11.940280 -0.000000 0.153589 0.422892 -0.167210 -93.477346 805.075042 -0.000000 0.360787 0.202356 -0.416408
5.045000 34.020782 -14.584107 -0.000000 0.160653 0.431518 -0.167617 -63.257767 800.385879 -0.000000 0.354253 0.193905 -0.416233
5.050000 28.381591 -18.221096 -0.000000 0.168960 0.439844 -0.167863 -30.901400 791.121758 -0.000000 0.347261 0.185940 -0.416067
5.055000 22.079101 -22.573974 -0.000000 0.176505 0.447709 -0.168601 -1.442535 776.483724 -0.000000 0.339891 0.178464 -0.415900
5.060000 15.050302 -27.666366 -0.000000 0.185065 0.454826 -0.169040 27.567126 756.276875 -0.000000 0.332173 0.171629 -0.415742
5.065000 7.349206 -33.401593 -0.000000 0.194207 0.461147 -0.169560 55.046711 730.334610 -0.000000 0.324112 0.165349 -0.415509
5.070000 -0.935032 -39.721959 -0.000000 0.203565 0.466988 -0.169997 80.277474 698.790212 -0.000000 0.315719 0.159655 -0.415307
5.075000 -9.684717 -46.587949 -0.000000 0.213221 0.472208 -0.170330 102.828014 662.091013 -0.000000 0.307106 0.154752 -0.415081
5.080000 -18.811074 -53.931089 -0.000000 0.223188 0.476805 -0.170616 123.063130 620.915046 -0.000000 0.298206 0.150389 -0.414892
5.085000 -28.164929 -61.613064 -0.000000 0.233409 0.480695 -0.170797 140.695824 576.314652 -0.000000 0.289077 0.146823 -0.414675
5.090000 -37.612129 -69.323382 -0.000000 0.244000 0.484003 -0.171015 156.236870 529.237164 -0.000000 0.279708 0.143713 -0.414500
5.095000 -46.676491 -76.711893 -0.000000 0.254237 0.486616 -0.170924 168.529648 480.944209 -0.000000 0.270106 0.141369 -0.414370
5.100000 -54.977694 -83.205662 -0.000000 0.264626 0.488385 -0.170958 178.243347 431.947961 -0.000000 0.260454 0.139797 -0.414199
5.105000 -61.980150 -88.219802 -0.000000 0.274899 0.489714 -0.170823 185.051363 382.800808 -0.000000 0.250669 0.138714 -0.414127
5.110000 -67.081342 -91.210532 -0.000000 0.284946 0.490335 -0.170561 188.167375 334.105700 -0.000000 0.241233 0.138213 -0.414014
5.115000 -70.004874 -91.459296 -0.000000 0.294618 0.490263 -0.170236 187.663172 285.925621 -0.000000 0.231923 0.138458 -0.413950
5.120000 -70.615958 -88.232442 -0.000000 0.303919 0.489750 -0.169885 183.364808 238.480632 -0.000000 0.222928 0.139299 -0.413919
5.125000 -69.095779 -80.668999 -0.000000 0.312714 0.488671 -0.169680 175.486104 192.032310 -0.000000 0.214199 0.140904 -0.413835
5.130000 -65.862784 -67.876437 -0.000000 0.320907 0.487009 -0.169578 164.376902 147.155519 -0.000000 0.205827 0.143089 -0.413714
5.135000 -61.660315 -48.908537 -0.000000 0.328515 0.485358 -0.169686 150.735982 104.566973 -0.000000 0.197796 0.146086 -0.413608
5.140000 -57.502484 -22.783592 -0.000000 0.335495 0.482845 -0.169549 135.522244 65.017633 -0.000000 0.190102 0.149766 -0.413425
5.145000 -54.453345 11.391886 -0.000000 0.341885 0.479610 -0.169166 119.675942 29.291944 -0.000000 0.182626 0.154196 -0.413136
5.150000 -53.497367 54.244291 -0.000000 0.347480 0.475300 -0.168367 104.012586 -1.888923 -0.000000 0.175364 0.159171 -0.413184
5.155000 -55.429489 105.960184 -0.000000 0.352636 0.470204 -0.167237 89.197208 -28.089607 -0.000000 0.168400 0.164768 -0.412872
5.160000 -60.978163 165.879748 -0.000000 0.357086 0.464512 -0.166605 75.732887 -48.921299 -0.000000 0.161702 0.170921 -0.412399
5.165000 -70.610657 232.458041 -0.000000 0.361450 0.458477 -0.166540 63.979851 -64.341729 -0.000000 0.155420 0.177340 -0.412169
5.170000 -84.070889 303.335184 -0.000000 0.365712 0.451593 -0.166455 54.104914 -74.625472 -0.000000 0.149400 0.184204 -0.411971
5.175000 -100.748982 375.479358 -0.000000 0.370015 0.443854 -0.166272 46.247786 -80.191857 -0.000000 0.143630 0.191430 -0.411832
5.180000 -119.564797 445.747104 -0.000000 0.374043 0.435166 -0.165981 40.435705 -81.665243 -0.000000 0.138120 0.199413 -0.411857
5.185000 -139.714584 511.204849 -0.000000 0.378437 0.426343 -0.166254 36.662095 -79.735739 -0.000000 0.133069 0.207985 -0.411829
5.190000 -160.068469 569.631101 -0.000000 0.382593 0.416869 -0.166421 34.746070 -75.106519 -0.000000 0.128396 0.216997 -0.411727
5.195000 -179.038056 619.698621 -0.000000 0.386438 0.406851 -0.166423 34.389153 -68.398215 -0.000000 0.123644 0.226318 -0.410838
5.200000 -196.950111 660.269150 -0.000000 0.390073 0.396637 -0.166150 35.468620 -60.022659 -0.000000 0.120051 0.236078 -0.410768
5.205000 -212.811324 691.234654 -0.000000 0.393358 0.386304 -0.166268 37.681083 -50.362322 -0.000000 0.116831 0.245871 -0.410628
5.210000 -225.187716 713.270067 -0.000000 0.396163 0.375609 -0.166028 40.798683 -39.737380 -0.000000 0.114236 0.255966 -0.410479
5.215000 -233.732914 727.318327 -0.000000 0.398506 0.364543 -0.165835 44.790514 -28.431459 -0.000000 0.112545 0.266319 -0.411143
5.220000 -239.105890 734.457839 -0.000000 0.400466 0.353594 -0.165776 49.728988 -16.755201 -0.000000 0.111052 0.276775 -0.411142
5.225000 -240.868070 736.392045 -0.000000 0.402018 0.342551 -0.165749 55.687875 -5.184778 -0.000000 0.110115 0.287513 -0.411139
5.230000 -238.998419 734.761779 -0.000000 0.403130 0.331254 -0.165608 62.724459 5.719954 -0.000000 0.109685 0.298435 -0.411114
5.235000 -235.641481 730.372759 -0.000000 0.403657 0.320127 -0.165495 70.685123 15.549008 -0.000000 0.109784 0.309166 -0.411153
5.240000 -229.525957 724.895632 -0.000000 0.403505 0.309120 -0.165381 79.242481 23.664665 -0.000000 0.110505 0.320115 -0.411183
5.245000 -220.749927 719.305680 -0.000000 0.402735 0.298137 -0.165194 87.942131 29.631463 -0.000000 0.111839 0.331080 -0.411353
5.250000 -210.026223 714.198011 -0.000000 0.401287 0.287255 -0.164994 96.205998 33.219031 -0.000000 0.113869 0.341781 -0.411446
5.255000 -195.152533 710.844649 -0.000000 0.398946 0.276061 -0.165143 103.571723 33.943166 -0.000000 0.116531 0.352623 -0.411557
5.260000 -180.057496 708.615546 -0.000000 0.395975 0.265533 -0.165020 109.330690 32.307873 -0.000000 0.119845 0.362942 -0.411766
5.265000 -162.261110 708.487941 -0.000000 0.392296 0.255173 -0.164791 113.140514 28.013555 -0.000000 0.123835 0.373191 -0.411905
5.270000 -141.727448 710.413877 -0.000000 0.388000 0.244947 -0.164540 114.647180 21.180744 -0.000000 0.128523 0.383344 -0.412035
5.275000 -119.345725 713.830778 -0.000000 0.383025 0.235096 -0.164295 113.623833 12.148062 -0.000000 0.133887 0.393132 -0.412299
5.280000 -94.943989 718.084078 -0.000000 0.377355 0.225580 -0.164029 110.003273 1.149960 -0.000000 0.139666 0.402675 -0.411872
5.285000 -68.486914 722.182919 -0.000000 0.371010 0.216505 -0.163662 103.802124 -11.486881 -0.000000 0.146258 0.411726 -0.411348
5.290000 -39.210801 724.972678 -0.000000 0.364191 0.207779 -0.163367 95.119893 -25.532533 -0.000000 0.154040 0.420355 -0.411842
5.295000 -10.716232 725.038181 -0.000000 0.356821 0.199625 -0.162919 84.299134 -40.269160 -0.000000 0.161142 0.428750 -0.411600
5.300000 19.468504 721.428481 -0.000000 0.349024 0.191565 -0.162331 71.509144 -55.863959 -0.000000 0.169286 0.436494 -0.411847
5.305000 49.467391 713.235472 -0.000000 0.340694 0.184460 -0.162075 57.102500 -72.001083 -0.000000 0.178061 0.443871 -0.411737
5.310000 77.588846 700.112628 -0.000000 0.332111 0.177953 -0.161884 41.485979 -88.489874 -0.000000 0.187058 0.450622 -0.411644
5.315000 104.210598 682.021131 -0.000000 0.323264 0.172038 -0.161785 24.801796 -105.208940 -0.000000 0.196627 0.456879 -0.411545
5.320000 127.823094 659.540733 -0.000000 0.314172 0.166758 -0.161711 7.458647 -121.750322 -0.000000 0.206240 0.462553 -0.411515
5.325000 148.957445 633.251207 -0.000000 0.304800 0.162301 -0.161467 -10.315062 -137.605536 -0.000000 0.216221 0.467389 -0.411692
5.330000 167.576220 603.924717 -0.000000 0.295164 0.158194 -0.161288 -28.042135 -152.066976 -0.000000 0.226230 0.471587 -0.411950
5.335000 184.437166 572.079319 -0.000000 0.285138 0.155114 -0.161132 -45.242540 -164.332988 -0.000000 0.236541 0.475013 -0.411999
5.340000 198.439650 538.652636 -0.000000 0.275289 0.152566 -0.161269 -60.828047 -173.781238 -0.000000 0.246816 0.477363 -0.411991
5.345000 209.916379 503.963766 -0.000000 0.265273 0.150566 -0.161083 -74.160019 -179.754028 -0.000000 0.256661 0.479662 -0.412175
5.350000 219.199277 467.973167 -0.000000 0.255303 0.149061 -0.160723 -84.842084 -181.520432 -0.000000 0.266560 0.481117 -0.412443
5.355000 226.138801 430.538325 -0.000000 0.245269 0.148210 -0.160453 -92.536254 -178.424144 -0.000000 0.276361 0.481820 -0.412904
5.360000 229.510097 392.024407 -0.000000 0.235518 0.148161 -0.160392 -96.684679 -170.174636 -0.000000 0.285496 0.481982 -0.413139
5.365000 229.992994 351.925416 -0.000000 0.225952 0.148805 -0.160297 -97.831503 -156.222386 -0.000000 0.294395 0.481463 -0.413336
5.370000 227.041073 310.708522 -0.000000 0.216650 0.150105 -0.160347 -96.358617 -136.402864 -0.000000 0.302591 0.480305 -0.413321
5.375000 221.059335 268.629183 -0.000000 0.207730 0.152165 -0.160415 -93.370281 -110.306349 -0.000000 0.310434 0.478748 -0.413609
5.380000 212.406438 226.283661 -0.000000 0.199225 0.154654 -0.160448 -90.099620 -77.489714 -0.000000 0.318096 0.476423 -0.414195
5.385000 201.174389 184.834703 -0.000000 0.191077 0.157851 -0.160586 -87.646142 -37.686356 -0.000000 0.324836 0.473204 -0.414807
5.390000 188.243695 144.876217 -0.000000 0.183343 0.161727 -0.160803 -87.111522 9.516744 -0.000000 0.331145 0.468900 -0.415631
5.395000 174.065904 107.461433 -0.000000 0.175990 0.166068 -0.160925 -89.122161 63.988802 -0.000000 0.336797 0.463934 -0.416558
5.400000 159.391635 73.195488 -0.000000 0.169122 0.171008 -0.160973 -94.043273 125.133310 -0.000000 0.342149 0.458831 -0.417187
5.405000 144.951507 42.362906 -0.000000 0.162488 0.176438 -0.160864 -101.813606 191.702776 -0.000000 0.347174 0.453233 -0.417719
5.410000 131.271636 14.953566 -0.000000 0.155482 0.182487 -0.161113 -111.609629 261.941135 -0.000000 0.351966 0.446843 -0.418228
5.415000 118.544646 -8.213508 -0.000000 0.149498 0.188924 -0.160858 -124.120318 332.869246 -0.000000 0.356639 0.440143 -0.418398
5.420000 106.958356 -27.535016 -0.000000 0.143782 0.196264 -0.160808 -137.695698 402.337685 -0.000000 0.361586 0.432672 -0.418293
5.425000 96.557664 -42.667695 -0.000000 0.138397 0.204054 -0.160684 -152.416343 467.628815 -0.000000 0.366345 0.424505 -0.418381
5.430000 87.382779 -53.658467 -0.000000 0.133488 0.212086 -0.160890 -167.715652 526.586092 -0.000000 0.371258 0.415710 -0.418243
5.435000 79.471995 -60.720449 -0.000000 0.128940 0.220653 -0.160910 -182.897542 577.492675 -0.000000 0.375957 0.406504 -0.417989
5.440000 72.916256 -64.152033 -0.000000 0.124907 0.229622 -0.160889 -197.848041 618.984914 -0.000000 0.380361 0.397114 -0.417822
5.445000 67.671223 -64.493496 -0.000000 0.121493 0.238839 -0.160848 -211.619299 650.654150 -0.000000 0.384368 0.387110 -0.417826
5.450000 63.721589 -62.291045 -0.000000 0.118299 0.248236 -0.161091 -223.920166 672.706163 -0.000000 0.388208 0.376866 -0.417877
5.455000 61.069394 -58.129277 -0.000000 0.115879 0.258116 -0.161087 -234.892927 686.011005 -0.000000 0.391588 0.366411 -0.417986
5.460000 59.669768 -52.626680 -0.000000 0.113927 0.268137 -0.161225 -244.673171 692.046995 -0.000000 0.394531 0.355692 -0.417994
5.465000 59.382953 -46.408926 -0.000000 0.112490 0.278574 -0.161463 -253.073976 692.770863 -0.000000 0.396991 0.344921 -0.417915
